# xmcd CD database file
#
# Track frame offsets:
#	150
#	13975
#	32836
#	58107
#	75525
#	89900
#	110360
#	128935
#	147225
#	162285
#	185531
#
# Disc length: 2942 seconds
#
# Revision: 4
# Processed by: cddbd v1.5.2PL0 Copyright (c) Steve Scherf et al.
# Submitted via: CDex 1.60beta1-cs1
#
DISCID=9a0b7c0b
DTITLE=高橋洋子 - それは時にあなたを励まし、時に支えとなるもの
DYEAR=2005
DGENRE=J-Pop
TTITLE0=Yoko's theme
TTITLE1=夜明け生まれ来る少女
TTITLE2=You are the one! (Alubum version)
TTITLE3=metamorphose
TTITLE4=WING
TTITLE5=恋のライセンス
TTITLE6=TRAIN
TTITLE7=My hope, Your hope
TTITLE8=夜風の静寂
TTITLE9=それは時にあなたを励まし、時に支えとなるもの
TTITLE10=a little wish
EXTD=YEAR: 2005
EXTT0=
EXTT1=
EXTT2=
EXTT3=
EXTT4=
EXTT5=
EXTT6=
EXTT7=
EXTT8=
EXTT9=
EXTT10=
PLAYORDER=
